<?xml version="1.0" standalone="no"?>
<!DOCTYPE svg PUBLIC "-//W3C//DTD SVG 20010904//EN"
 "http://www.w3.org/TR/2001/REC-SVG-20010904/DTD/svg10.dtd">
<svg version="1.0" xmlns="http://www.w3.org/2000/svg"
 width="277.000000pt" height="182.000000pt" viewBox="0 0 277.000000 182.000000"
 preserveAspectRatio="xMidYMid meet">

<g transform="translate(0.000000,182.000000) scale(0.100000,-0.100000)"
fill="#000000" stroke="none">
<path d="M1231 1575 c-309 -70 -531 -350 -531 -669 0 -115 20 -198 72 -306 78
-161 255 -306 433 -353 136 -36 282 -29 411 17 202 73 368 253 425 459 28 103
31 252 6 347 -60 228 -230 411 -452 486 -100 33 -264 42 -364 19z m274 -80
c116 -24 208 -76 300 -169 122 -123 175 -249 175 -421 0 -160 -60 -305 -175
-420 -79 -79 -197 -148 -243 -143 l-27 3 -5 126 c-4 96 -9 131 -23 152 -17 27
-17 27 7 27 42 0 123 32 161 62 55 46 78 99 83 195 5 83 -3 119 -37 172 -9 14
-14 42 -12 72 1 27 -1 63 -4 80 -6 29 -10 31 -39 25 -17 -3 -53 -18 -80 -31
-47 -25 -52 -25 -126 -14 -57 8 -96 8 -153 -1 -72 -11 -78 -10 -124 13 -26 14
-63 28 -80 32 -30 6 -34 4 -44 -22 -6 -15 -9 -52 -6 -82 3 -45 0 -61 -19 -88
-62 -92 -33 -284 52 -349 39 -30 124 -64 159 -64 29 0 30 -7 10 -34 -8 -11
-15 -27 -15 -37 0 -21 -20 -29 -77 -29 -43 0 -49 4 -103 60 -46 48 -64 60 -89
60 -39 0 -39 -10 -2 -38 16 -12 42 -45 58 -74 37 -68 76 -91 154 -91 l59 1 0
-48 c0 -27 -3 -55 -6 -64 -9 -24 -54 -19 -120 14 -215 108 -347 340 -330 578
11 155 67 275 180 387 143 142 344 201 541 160z"/>
</g>
</svg>
